<svg width="900" height="380" viewBox="0 0 900 380" xmlns="http://www.w3.org/2000/svg" role="img">
  <title>Mahin Nandipa — GitHub Achievements</title>
  <defs>
    <linearGradient id="bg" x1="0" y1="0" x2="1" y2="1">
      <stop offset="0%" stop-color="#050d1a"/>
      <stop offset="100%" stop-color="#0a1628"/>
    </linearGradient>
    <linearGradient id="card1" x1="0" y1="0" x2="0" y2="1">
      <stop offset="0%" stop-color="#0d1f3c"/>
      <stop offset="100%" stop-color="#071020"/>
    </linearGradient>
    <linearGradient id="glowH" x1="0" y1="0" x2="1" y2="0">
      <stop offset="0%" stop-color="#00d4ff" stop-opacity="0"/>
      <stop offset="50%" stop-color="#00d4ff" stop-opacity="1"/>
      <stop offset="100%" stop-color="#00d4ff" stop-opacity="0"/>
    </linearGradient>
    <filter id="glow">
      <feGaussianBlur stdDeviation="2.5" result="blur"/>
      <feMerge><feMergeNode in="blur"/><feMergeNode in="SourceGraphic"/></feMerge>
    </filter>
    <filter id="softglow">
      <feGaussianBlur stdDeviation="1.5" result="blur"/>
      <feMerge><feMergeNode in="blur"/><feMergeNode in="SourceGraphic"/></feMerge>
    </filter>
  </defs>

  <!-- Background -->
  <rect width="900" height="380" fill="url(#bg)" rx="12"/>

  <!-- Outer border glow -->
  <rect x="1" y="1" width="898" height="378" fill="none" stroke="#00d4ff" stroke-width="0.5" stroke-opacity="0.3" rx="12"/>

  <!-- Top scan line accent -->
  <rect x="40" y="18" width="820" height="1" fill="url(#glowH)" opacity="0.6"/>

  <!-- Header -->
  <text x="450" y="46" text-anchor="middle" font-family="'Space Grotesk',monospace,sans-serif" font-size="11" font-weight="500" fill="#00d4ff" letter-spacing="6" opacity="0.8">ACHIEVEMENT MATRIX</text>

  <!-- Bottom scan line -->
  <rect x="40" y="360" width="820" height="1" fill="url(#glowH)" opacity="0.4"/>

  <!-- ── CARD 1: Repos Deployed ── x=30 -->
  <g>
    <rect x="30" y="68" width="152" height="168" rx="8" fill="url(#card1)" stroke="#00d4ff" stroke-width="0.5" stroke-opacity="0.4"/>
    <!-- top accent line -->
    <rect x="30" y="68" width="152" height="2" rx="1" fill="#00d4ff" opacity="0.7"/>
    <!-- icon ring -->
    <circle cx="106" cy="118" r="28" fill="none" stroke="#00d4ff" stroke-width="0.8" stroke-opacity="0.25"/>
    <circle cx="106" cy="118" r="22" fill="#071828" stroke="#00d4ff" stroke-width="1" stroke-opacity="0.5"/>
    <!-- satellite icon paths -->
    <g filter="url(#softglow)" stroke="#00d4ff" stroke-width="1.4" fill="none" stroke-linecap="round">
      <rect x="99" y="112" width="14" height="12" rx="2" fill="#00d4ff" fill-opacity="0.12" stroke="#00d4ff"/>
      <line x1="90" y1="116" x2="99" y2="118"/>
      <line x1="113" y1="118" x2="122" y2="116"/>
      <line x1="89" y1="114" x2="89" y2="120"/>
      <line x1="122" y1="114" x2="122" y2="120"/>
      <line x1="106" y1="112" x2="106" y2="107"/>
      <line x1="104" y1="107" x2="108" y2="107"/>
    </g>
    <!-- value -->
    <text x="106" y="162" text-anchor="middle" font-family="'Space Grotesk',monospace,sans-serif" font-size="32" font-weight="700" fill="#00d4ff" filter="url(#glow)">11</text>
    <text x="106" y="178" text-anchor="middle" font-family="'Space Grotesk',sans-serif" font-size="10" fill="#7dd3fc" letter-spacing="1">LIVE DEPLOYS</text>
    <text x="106" y="194" text-anchor="middle" font-family="'Space Grotesk',sans-serif" font-size="9" fill="#1e4060" letter-spacing="0.5">GitHub Pages · Netlify</text>
    <text x="106" y="226" text-anchor="middle" font-family="monospace" font-size="9" fill="#00d4ff" opacity="0.5">[ RANK: ORBITAL ]</text>
  </g>

  <!-- ── CARD 2: Repos Built ── x=200 -->
  <g>
    <rect x="200" y="68" width="152" height="168" rx="8" fill="url(#card1)" stroke="#0ea5e9" stroke-width="0.5" stroke-opacity="0.4"/>
    <rect x="200" y="68" width="152" height="2" rx="1" fill="#0ea5e9" opacity="0.7"/>
    <circle cx="276" cy="118" r="28" fill="none" stroke="#0ea5e9" stroke-width="0.8" stroke-opacity="0.25"/>
    <circle cx="276" cy="118" r="22" fill="#071828" stroke="#0ea5e9" stroke-width="1" stroke-opacity="0.5"/>
    <!-- rocket icon -->
    <g filter="url(#softglow)" stroke="#0ea5e9" stroke-width="1.3" fill="none" stroke-linecap="round">
      <path d="M276 106 C280 110 282 116 280 122 L272 122 C270 116 272 110 276 106Z" fill="#0ea5e9" fill-opacity="0.12"/>
      <line x1="272" y1="121" x2="269" y2="126"/>
      <line x1="280" y1="121" x2="283" y2="126"/>
      <circle cx="276" cy="116" r="2.5" fill="#0ea5e9" fill-opacity="0.4"/>
      <line x1="276" y1="106" x2="276" y2="103"/>
    </g>
    <text x="276" y="162" text-anchor="middle" font-family="'Space Grotesk',monospace,sans-serif" font-size="32" font-weight="700" fill="#0ea5e9" filter="url(#glow)">14</text>
    <text x="276" y="178" text-anchor="middle" font-family="'Space Grotesk',sans-serif" font-size="10" fill="#7dd3fc" letter-spacing="1">PUBLIC REPOS</text>
    <text x="276" y="194" text-anchor="middle" font-family="'Space Grotesk',sans-serif" font-size="9" fill="#1e4060" letter-spacing="0.5">Aerospace · AI · ML</text>
    <text x="276" y="226" text-anchor="middle" font-family="monospace" font-size="9" fill="#0ea5e9" opacity="0.5">[ RANK: BUILDER ]</text>
  </g>

  <!-- ── CARD 3: Platforms Built ── x=370 -->
  <g>
    <rect x="370" y="68" width="152" height="168" rx="8" fill="url(#card1)" stroke="#a78bfa" stroke-width="0.5" stroke-opacity="0.4"/>
    <rect x="370" y="68" width="152" height="2" rx="1" fill="#a78bfa" opacity="0.7"/>
    <circle cx="446" cy="118" r="28" fill="none" stroke="#a78bfa" stroke-width="0.8" stroke-opacity="0.25"/>
    <circle cx="446" cy="118" r="22" fill="#071828" stroke="#a78bfa" stroke-width="1" stroke-opacity="0.5"/>
    <!-- globe/orbit icon -->
    <g filter="url(#softglow)" stroke="#a78bfa" stroke-width="1.2" fill="none">
      <circle cx="446" cy="118" r="10"/>
      <ellipse cx="446" cy="118" rx="10" ry="4"/>
      <line x1="436" y1="118" x2="456" y2="118"/>
      <line x1="446" y1="108" x2="446" y2="128"/>
    </g>
    <text x="446" y="162" text-anchor="middle" font-family="'Space Grotesk',monospace,sans-serif" font-size="32" font-weight="700" fill="#a78bfa" filter="url(#glow)">3</text>
    <text x="446" y="178" text-anchor="middle" font-family="'Space Grotesk',sans-serif" font-size="10" fill="#7dd3fc" letter-spacing="1">SSA PLATFORMS</text>
    <text x="446" y="194" text-anchor="middle" font-family="'Space Grotesk',sans-serif" font-size="9" fill="#1e4060" letter-spacing="0.5">ORBITIQ · NEXUS · ASTRA</text>
    <text x="446" y="226" text-anchor="middle" font-family="monospace" font-size="9" fill="#a78bfa" opacity="0.5">[ RANK: SSA ENGINEER ]</text>
  </g>

  <!-- ── CARD 4: Contributions ── x=540 -->
  <g>
    <rect x="540" y="68" width="152" height="168" rx="8" fill="url(#card1)" stroke="#f97316" stroke-width="0.5" stroke-opacity="0.4"/>
    <rect x="540" y="68" width="152" height="2" rx="1" fill="#f97316" opacity="0.7"/>
    <circle cx="616" cy="118" r="28" fill="none" stroke="#f97316" stroke-width="0.8" stroke-opacity="0.25"/>
    <circle cx="616" cy="118" r="22" fill="#071828" stroke="#f97316" stroke-width="1" stroke-opacity="0.5"/>
    <!-- commit/flame icon -->
    <g filter="url(#softglow)" stroke="#f97316" stroke-width="1.3" fill="none" stroke-linecap="round">
      <path d="M616 108 C620 112 621 117 618 121 C617 118 614 117 614 117 C615 114 614 111 616 108Z" fill="#f97316" fill-opacity="0.15"/>
      <path d="M612 115 C611 118 612 122 616 124 C620 122 621 118 619 115 C618 117 617 117 616 117 C615 117 613 117 612 115Z" fill="#f97316" fill-opacity="0.1"/>
    </g>
    <text x="616" y="162" text-anchor="middle" font-family="'Space Grotesk',monospace,sans-serif" font-size="32" font-weight="700" fill="#f97316" filter="url(#glow)">77</text>
    <text x="616" y="178" text-anchor="middle" font-family="'Space Grotesk',sans-serif" font-size="10" fill="#7dd3fc" letter-spacing="1">CONTRIBUTIONS</text>
    <text x="616" y="194" text-anchor="middle" font-family="'Space Grotesk',sans-serif" font-size="9" fill="#1e4060" letter-spacing="0.5">Since May 2025</text>
    <text x="616" y="226" text-anchor="middle" font-family="monospace" font-size="9" fill="#f97316" opacity="0.5">[ STREAK: 6 DAYS ]</text>
  </g>

  <!-- ── CARD 5: CodeBLEU ── x=710 -->
  <g>
    <rect x="710" y="68" width="152" height="168" rx="8" fill="url(#card1)" stroke="#22c55e" stroke-width="0.5" stroke-opacity="0.4"/>
    <rect x="710" y="68" width="152" height="2" rx="1" fill="#22c55e" opacity="0.7"/>
    <circle cx="786" cy="118" r="28" fill="none" stroke="#22c55e" stroke-width="0.8" stroke-opacity="0.25"/>
    <circle cx="786" cy="118" r="22" fill="#071828" stroke="#22c55e" stroke-width="1" stroke-opacity="0.5"/>
    <!-- brain/neural icon -->
    <g filter="url(#softglow)" stroke="#22c55e" stroke-width="1.2" fill="none" stroke-linecap="round">
      <circle cx="786" cy="116" r="8"/>
      <line x1="782" y1="112" x2="786" y2="116"/>
      <line x1="786" y1="116" x2="790" y2="112"/>
      <line x1="786" y1="116" x2="786" y2="122"/>
      <circle cx="782" cy="111" r="2" fill="#22c55e" fill-opacity="0.3"/>
      <circle cx="790" cy="111" r="2" fill="#22c55e" fill-opacity="0.3"/>
      <circle cx="786" cy="123" r="2" fill="#22c55e" fill-opacity="0.3"/>
    </g>
    <text x="786" y="158" text-anchor="middle" font-family="'Space Grotesk',monospace,sans-serif" font-size="28" font-weight="700" fill="#22c55e" filter="url(#glow)">+34pp</text>
    <text x="786" y="174" text-anchor="middle" font-family="'Space Grotesk',sans-serif" font-size="10" fill="#7dd3fc" letter-spacing="1">CODEBLEU GAIN</text>
    <text x="786" y="190" text-anchor="middle" font-family="'Space Grotesk',sans-serif" font-size="9" fill="#1e4060" letter-spacing="0.5">38% → 72% absolute</text>
    <text x="786" y="226" text-anchor="middle" font-family="monospace" font-size="9" fill="#22c55e" opacity="0.5">[ RANK: ML RESEARCHER ]</text>
  </g>

  <!-- ── BOTTOM ROW: skill tags ── -->
  <g font-family="monospace" font-size="10" fill="#1e3a5a">
    <!-- tag pills row 1 -->
    <rect x="30" y="252" width="130" height="22" rx="11" fill="#071828" stroke="#00d4ff" stroke-width="0.5" stroke-opacity="0.3"/>
    <text x="95" y="267" text-anchor="middle" fill="#00d4ff" opacity="0.7">SGP4 · Orbital Mech</text>

    <rect x="172" y="252" width="110" height="22" rx="11" fill="#071828" stroke="#0ea5e9" stroke-width="0.5" stroke-opacity="0.3"/>
    <text x="227" y="267" text-anchor="middle" fill="#0ea5e9" opacity="0.7">PyTorch · LoRA</text>

    <rect x="294" y="252" width="120" height="22" rx="11" fill="#071828" stroke="#a78bfa" stroke-width="0.5" stroke-opacity="0.3"/>
    <text x="354" y="267" text-anchor="middle" fill="#a78bfa" opacity="0.7">FAISS · RAG · LLM</text>

    <rect x="426" y="252" width="120" height="22" rx="11" fill="#071828" stroke="#f97316" stroke-width="0.5" stroke-opacity="0.3"/>
    <text x="486" y="267" text-anchor="middle" fill="#f97316" opacity="0.7">FastAPI · Streamlit</text>

    <rect x="558" y="252" width="100" height="22" rx="11" fill="#071828" stroke="#22c55e" stroke-width="0.5" stroke-opacity="0.3"/>
    <text x="608" y="267" text-anchor="middle" fill="#22c55e" opacity="0.7">PINN · Physics AI</text>

    <rect x="670" y="252" width="120" height="22" rx="11" fill="#071828" stroke="#00d4ff" stroke-width="0.5" stroke-opacity="0.3"/>
    <text x="730" y="267" text-anchor="middle" fill="#00d4ff" opacity="0.7">Space-Track · NOAA</text>

    <rect x="802" y="252" width="68" height="22" rx="11" fill="#071828" stroke="#0ea5e9" stroke-width="0.5" stroke-opacity="0.3"/>
    <text x="836" y="267" text-anchor="middle" fill="#0ea5e9" opacity="0.7">.NET 8</text>
  </g>

  <!-- ── STATUS BAR ── -->
  <g>
    <rect x="30" y="294" width="840" height="44" rx="6" fill="#030810" stroke="#00d4ff" stroke-width="0.4" stroke-opacity="0.2"/>

    <!-- left: system label -->
    <text x="46" y="310" font-family="monospace" font-size="9" fill="#1e4060">SYSTEM</text>
    <text x="46" y="324" font-family="monospace" font-size="9" fill="#00d4ff" opacity="0.6">MAHIN-AEROAI v2026</text>

    <!-- dividers -->
    <line x1="150" y1="298" x2="150" y2="334" stroke="#00d4ff" stroke-width="0.3" stroke-opacity="0.2"/>
    <line x1="300" y1="298" x2="300" y2="334" stroke="#00d4ff" stroke-width="0.3" stroke-opacity="0.2"/>
    <line x1="470" y1="298" x2="470" y2="334" stroke="#00d4ff" stroke-width="0.3" stroke-opacity="0.2"/>
    <line x1="640" y1="298" x2="640" y2="334" stroke="#00d4ff" stroke-width="0.3" stroke-opacity="0.2"/>

    <!-- stat cols -->
    <text x="166" y="310" font-family="monospace" font-size="9" fill="#1e4060">EDUCATION</text>
    <text x="166" y="324" font-family="monospace" font-size="9" fill="#7dd3fc" opacity="0.8">IIIT HYD · VIT BHOPAL</text>

    <text x="316" y="310" font-family="monospace" font-size="9" fill="#1e4060">LOCATION</text>
    <text x="316" y="324" font-family="monospace" font-size="9" fill="#7dd3fc" opacity="0.8">HYDERABAD, INDIA</text>

    <text x="486" y="310" font-family="monospace" font-size="9" fill="#1e4060">STACK</text>
    <text x="486" y="324" font-family="monospace" font-size="9" fill="#7dd3fc" opacity="0.8">Python · JS · C++ · SQL</text>

    <text x="656" y="310" font-family="monospace" font-size="9" fill="#1e4060">STATUS</text>
    <text x="656" y="324" font-family="monospace" font-size="9" fill="#22c55e" opacity="0.9">● OPEN TO WORK</text>

    <!-- right pulse dot -->
    <circle cx="852" cy="316" r="4" fill="#00d4ff" opacity="0.8"/>
    <circle cx="852" cy="316" r="8" fill="none" stroke="#00d4ff" stroke-width="0.5" opacity="0.3"/>
  </g>
</svg>
